<svg width="25" height="24" viewBox="0 0 25 24" fill="none" xmlns="http://www.w3.org/2000/svg">
<path d="M17.4395 3C18.7805 3 20.0705 3.53 21.0195 4.481C21.9695 5.43 22.5005 6.71 22.5005 8.05V15.95C22.5005 18.74 20.2305 21 17.4395 21H7.56049C4.76949 21 2.50049 18.74 2.50049 15.95V8.05C2.50049 5.26 4.75949 3 7.56049 3H17.4395ZM18.5705 8.2C18.3605 8.189 18.1605 8.26 18.0095 8.4L13.5005 12C12.9205 12.481 12.0895 12.481 11.5005 12L7.00049 8.4C6.68949 8.17 6.25949 8.2 6.00049 8.47C5.73049 8.74 5.70049 9.17 5.92949 9.47L6.06049 9.6L10.6105 13.15C11.1705 13.59 11.8495 13.83 12.5605 13.83C13.2695 13.83 13.9605 13.59 14.5195 13.15L19.0305 9.54L19.1105 9.46C19.3495 9.17 19.3495 8.75 19.0995 8.46C18.9605 8.311 18.7695 8.22 18.5705 8.2Z" fill="#F8FAFC"/>
</svg>
