<svg width="25" height="24" viewBox="0 0 25 24" fill="none" xmlns="http://www.w3.org/2000/svg">
<g clip-path="url(#clip0_745_56404)">
<path d="M24.125 12C24.125 5.57812 18.9219 0.375 12.5 0.375C6.07812 0.375 0.875 5.57812 0.875 12C0.875 17.8022 5.12609 22.6116 10.6836 23.4844V15.3605H7.73047V12H10.6836V9.43875C10.6836 6.52547 12.418 4.91625 15.0744 4.91625C16.3466 4.91625 17.6769 5.14313 17.6769 5.14313V8.0025H16.2106C14.7669 8.0025 14.3164 8.89875 14.3164 9.81797V12H17.5405L17.0248 15.3605H14.3164V23.4844C19.8739 22.6116 24.125 17.8022 24.125 12Z" fill="white"/>
</g>
<defs>
<clipPath id="clip0_745_56404">
<rect width="24" height="24" fill="white" transform="translate(0.5)"/>
</clipPath>
</defs>
</svg>
