<svg width="25" height="24" viewBox="0 0 25 24" fill="none" xmlns="http://www.w3.org/2000/svg">
<path d="M20.04 19.0433H17.0789V14.4022C17.0789 13.2956 17.0567 11.8711 15.5344 11.8711C13.9911 11.8711 13.7556 13.0756 13.7556 14.3211V19.0433H10.7933V9.5H13.6378V10.8H13.6767C14.0744 10.0511 15.0411 9.25889 16.4856 9.25889C19.4856 9.25889 20.0411 11.2344 20.0411 13.8056L20.04 19.0433ZM7.44889 8.19444C7.22284 8.19474 6.99896 8.15041 6.79007 8.06401C6.58119 7.9776 6.39141 7.85082 6.23162 7.69093C6.07183 7.53104 5.94517 7.34118 5.8589 7.13224C5.77263 6.9233 5.72845 6.69938 5.72889 6.47333C5.72911 6.13315 5.8302 5.80067 6.01938 5.51794C6.20856 5.23521 6.47733 5.01493 6.7917 4.88495C7.10607 4.75497 7.45193 4.72113 7.78553 4.78771C8.11914 4.85429 8.42551 5.01831 8.6659 5.25901C8.90629 5.49971 9.06991 5.80629 9.13606 6.13998C9.20221 6.47367 9.16792 6.81948 9.03754 7.13369C8.90715 7.44789 8.68652 7.71638 8.40355 7.90519C8.12057 8.094 7.78796 8.19466 7.44778 8.19444M8.93222 19.0433H5.96333V9.5H8.93333L8.93222 19.0433ZM21.5222 2H4.47778C3.66 2 3 2.64444 3 3.44111V20.5589C3 21.3556 3.66 22 4.47556 22H21.5189C22.3333 22 23 21.3556 23 20.5589V3.44111C23 2.64556 22.3333 2 21.5178 2H21.5222Z" fill="#F8FAFC"/>
</svg>
