<svg width="21" height="18" viewBox="0 0 21 18" fill="none" xmlns="http://www.w3.org/2000/svg">
<path d="M15.4395 0C16.7805 0 18.0705 0.53 19.0195 1.481C19.9695 2.43 20.5005 3.71 20.5005 5.05V12.95C20.5005 15.74 18.2305 18 15.4395 18H5.56049C2.76949 18 0.500488 15.74 0.500488 12.95V5.05C0.500488 2.26 2.75949 0 5.56049 0H15.4395ZM16.5705 5.2C16.3605 5.189 16.1605 5.26 16.0095 5.4L11.5005 9C10.9205 9.481 10.0895 9.481 9.50049 9L5.00049 5.4C4.68949 5.17 4.25949 5.2 4.00049 5.47C3.73049 5.74 3.70049 6.17 3.92949 6.47L4.06049 6.6L8.61049 10.15C9.17049 10.59 9.84949 10.83 10.5605 10.83C11.2695 10.83 11.9605 10.59 12.5195 10.15L17.0305 6.54L17.1105 6.46C17.3495 6.17 17.3495 5.75 17.0995 5.46C16.9605 5.311 16.7695 5.22 16.5705 5.2Z" fill="#F8FAFC"/>
</svg>
